<svg height="9" viewBox="0 0 9 9" width="9" xmlns="http://www.w3.org/2000/svg" xmlns:xlink="http://www.w3.org/1999/xlink"><linearGradient id="a" x1="50%" x2="50%" y1="0%" y2="100%"><stop offset="0" stop-color="#57cdf4"/><stop offset="1" stop-color="#2c9ee6"/></linearGradient><path d="m.6826484 5.90182648-.50684931-.50684931c-.21461188-.21461187-.21461188-.56164384 0-.7739726l4.43607306-4.43835617c.21461187-.21461187.56164383-.21461187.7739726 0l4.43607306 4.43607306c.21461189.21461187.21461189.56164384 0 .7739726l-.50684932.50684932c-.21689497.21689498-.57077625.21232877-.78310502-.00913242l-2.61872146-2.74885845v6.56164384c0 .30365295-.24429224.54794525-.54794521.54794525h-.7305936c-.30365297 0-.54794521-.2442923-.54794521-.54794525v-6.56164384l-2.62100457 2.75114155c-.21232876.2237443-.56621004.22831051-.78310502.00913242z" fill="url(#a)" fill-rule="evenodd" transform="matrix(.70710678 .70710678 -.70710678 .70710678 4.660324 -3)"/></svg>